<?xml version="1.0" encoding="UTF-8"?>
<svg id="Layer_1" data-name="Layer 1" xmlns="http://www.w3.org/2000/svg" viewBox="0 0 271.86 287.59">
  <defs>
    <style>
      .cls-1 {
        fill: #2a1b5a;
      }
    </style>
  </defs>
  <path class="cls-1" d="m44.22,250.07c-1.62-1.11-2.49-2.72-3.67-3.96-19.59-20.58-32-44.94-37.63-72.71-3.08-15.21-3.71-30.58-1.96-46.06,2.82-24.92,10.96-47.89,25.34-68.43C47.16,29.11,75.32,9.94,111.1,2.53c13.07-2.71,26.35-3.38,39.6-1.34,7.36,1.14,14.63,2.89,21.94,4.4.83.17,1.62.53,2.9.96-5.26.71-10.03,1.1-14.68,2.03-20.66,4.13-38.02,14.22-52.24,29.67-14.18,15.41-22.83,33.58-26.18,54.21-4.9,30.14,1.47,57.77,19.69,82.29,15.44,20.78,36.04,33.81,61.77,37.95,28.91,4.66,54.49-3.08,76.78-21.81,14.08-11.83,23.69-26.8,29.95-44,.23-.64.45-1.28.68-1.92.18.03.37.07.55.1-.24,4.28-.33,8.57-.75,12.83-2.24,22.36-8.68,43.41-20.38,62.67-20.18,33.2-48.87,55.16-86.97,63.76-33.53,7.58-65.17,1.76-94.77-15.52-7.74-4.52-14.92-9.85-21.46-15.98-1.07-1-2.24-1.92-3.3-2.77h0Z"/>
</svg>