<?xml version="1.0" encoding="UTF-8"?>
<svg id="Layer_1" data-name="Layer 1" xmlns="http://www.w3.org/2000/svg" viewBox="0 0 753.8 359.5">
  <defs>
    <style>
      .cls-1 {
        fill: #2a1b5a;
      }
    </style>
  </defs>
  <path class="cls-1" d="m44.22,277.78c-1.62-1.11-2.49-2.72-3.67-3.96-19.59-20.58-32-44.94-37.63-72.71-3.08-15.21-3.71-30.58-1.96-46.06,2.82-24.92,10.96-47.89,25.34-68.43,20.86-29.8,49.02-48.97,84.8-56.38,13.07-2.71,26.35-3.38,39.6-1.34,7.36,1.14,14.63,2.89,21.94,4.4.83.17,1.62.53,2.9.96-5.26.71-10.03,1.1-14.68,2.03-20.66,4.13-38.02,14.22-52.24,29.67-14.18,15.41-22.83,33.58-26.18,54.21-4.9,30.14,1.47,57.77,19.69,82.29,15.44,20.78,36.04,33.81,61.77,37.95,28.91,4.66,54.49-3.08,76.78-21.81,14.08-11.83,23.69-26.8,29.95-44,.23-.64.45-1.28.68-1.92.18.03.37.07.55.1-.24,4.28-.33,8.57-.75,12.83-2.24,22.36-8.68,43.41-20.38,62.67-20.18,33.2-48.87,55.16-86.97,63.76-33.53,7.58-65.17,1.76-94.77-15.52-7.74-4.52-14.92-9.85-21.46-15.98-1.07-1-2.24-1.92-3.3-2.77Z"/>
  <g>
    <path class="cls-1" d="m385.8,90.83l22.71,2.49c-1.46,13.61-6.72,24.82-15.79,33.61-9.06,8.8-20.97,13.2-35.71,13.2-12.42,0-22.49-3.12-30.23-9.36-7.74-6.24-13.69-14.71-17.88-25.4-4.18-10.69-6.28-22.47-6.28-35.36,0-20.72,4.91-37.56,14.74-50.54,9.83-12.98,23.34-19.47,40.54-19.47,13.48,0,24.7,4.15,33.66,12.45,8.96,8.3,14.61,20.19,16.93,35.66l-22.71,2.39c-4.18-20.52-13.41-30.78-27.69-30.78-9.16,0-16.28,4.27-21.36,12.8-5.08,8.53-7.62,20.9-7.62,37.1s2.72,28.9,8.17,37.3c5.44,8.4,12.65,12.6,21.61,12.6,7.17,0,13.28-2.82,18.33-8.47,5.04-5.64,7.9-12.38,8.56-20.22Z"/>
    <path class="cls-1" d="m465.97,140.13c-14.87,0-26.23-5.34-34.06-16.04-7.83-10.69-11.75-22.94-11.75-36.75,0-14.87,4.33-27.26,13-37.15,8.67-9.89,20.1-14.84,34.31-14.84,13.48,0,24.55,4.81,33.22,14.44,8.67,9.63,13,22.14,13,37.55s-4.5,28.63-13.5,38.29c-9,9.66-20.4,14.49-34.21,14.49Zm.8-18.72c15.27,0,22.91-11.39,22.91-34.16,0-10.29-1.83-18.41-5.48-24.35-3.65-5.94-9.26-8.91-16.83-8.91s-13.64,3.07-17.43,9.21c-3.78,6.14-5.68,14.29-5.68,24.45,0,10.96,2.01,19.32,6.03,25.1,4.02,5.78,9.51,8.66,16.48,8.66Z"/>
    <path class="cls-1" d="m601.52,120.41v17.63h-75.89v-17.63l48.5-65.34h-43.92v-17.63h71.31v16.04l-49.7,66.93h49.7Z"/>
    <path class="cls-1" d="m694.94,37.45l-39.14,114.54c-2.39,7.04-5.66,12.5-9.81,16.38-4.15,3.88-10.01,5.83-17.58,5.83-2.99,0-7.34-.23-13.05-.7v-18.03l10.86.2c4.78,0,8.32-.78,10.61-2.34,2.29-1.56,4.1-4.33,5.43-8.32,1.33-3.98,1.99-6.31,1.99-6.97,0-.4-.7-2.46-2.09-6.18l-34.56-94.42h23.8l24.4,66.33,21.01-66.33h18.13Z"/>
  </g>
  <g>
    <path class="cls-1" d="m412.49,323.44h-23.8l-51.59-86.85c-.8-1.33-2.09-3.49-3.88-6.47-.8-1.33-2.03-3.42-3.69-6.27v99.6h-19.72v-135.95h27.09l47.61,80.08c.4.66,3.29,5.54,8.66,14.64v-94.72h19.32v135.95Z"/>
    <path class="cls-1" d="m463.68,211.1h-22.71v-23.6h22.71v23.6Zm0,112.34h-22.71v-100.59h22.71v100.59Z"/>
    <path class="cls-1" d="m582.7,203.63v17.43h-6.97c-3.05,0-5.73.37-8.02,1.1-2.29.73-4.53,3.09-6.72,7.07,7.97,6.51,11.95,13.74,11.95,21.71,0,8.9-3.73,16.27-11.2,22.11-7.47,5.84-17.35,8.76-29.63,8.76-5.31,0-11.52-.86-18.62-2.59-4.65,2.13-6.97,5.41-6.97,9.86,0,2.46,1.13,4.71,3.39,6.77,2.26,2.06,5.68,3.09,10.26,3.09h29.88c10.22,0,18.24,2.64,24.05,7.92,5.81,5.28,8.71,11.84,8.71,19.67,0,9.49-4.4,17.36-13.2,23.6-8.8,6.24-21.83,9.36-39.09,9.36-32.47,0-48.7-9.06-48.7-27.19,0-8.96,4.88-15.77,14.64-20.42-6.24-5.31-9.36-10.86-9.36-16.63,0-8.76,5.34-15.74,16.04-20.91-9.3-5.64-13.94-13.41-13.94-23.31,0-8.37,3.42-15.5,10.26-21.41,6.84-5.91,17.23-8.86,31.17-8.86,6.37,0,12.85.7,19.42,2.09,3.05-12.81,11.12-19.22,24.2-19.22h8.47Zm-76.49,114.34c-3.25,2.99-4.88,5.88-4.88,8.66,0,4.58,2.72,8.62,8.17,12.1,5.44,3.49,14.11,5.23,25.99,5.23,17.46,0,26.19-4.48,26.19-13.45,0-3.32-1.53-5.83-4.58-7.52-3.05-1.69-6.54-2.54-10.46-2.54h-24.1c-4.58,0-10.03-.83-16.33-2.49Zm24.9-49.6c12.35,0,18.52-5.81,18.52-17.43,0-4.45-1.54-8.2-4.63-11.25-3.09-3.05-7.59-4.58-13.5-4.58s-10.61,1.59-13.89,4.78c-3.29,3.19-4.93,7.17-4.93,11.95s1.63,8.9,4.88,11.95c3.25,3.05,7.77,4.58,13.54,4.58Z"/>
    <path class="cls-1" d="m679.9,323.44h-22.71v-65.83c0-7.1-1.51-12.1-4.53-14.99-3.02-2.89-6.56-4.33-10.61-4.33-6.44,0-11.85,2.56-16.23,7.67-4.38,5.11-6.57,13.54-6.57,25.3v52.19h-22.71v-135.95h22.71v52.98c5.64-14.47,15.54-21.71,29.68-21.71,20.65,0,30.97,11.85,30.97,35.56v69.12Z"/>
    <path class="cls-1" d="m753.8,305.71v17.73c-6.77,1.46-12.02,2.19-15.74,2.19-6.11,0-11.35-1.21-15.74-3.64-4.38-2.42-7.59-5.74-9.61-9.96-2.03-4.22-3.04-10.71-3.04-19.47v-52.09h-12.55v-17.63h13.84l2.09-26.19,18.62-1.69v27.89h20.22v17.63h-20.22v49.1c0,6.31,1.15,10.61,3.44,12.9s6.62,3.44,13,3.44c1.79,0,3.69-.06,5.68-.2Z"/>
  </g>
</svg>